<svg xmlns="http://www.w3.org/2000/svg" viewBox="0 0 400 300">
  <defs>
    <linearGradient id="bgGrad" x1="0%" y1="0%" x2="100%" y2="100%">
      <stop offset="0%" style="stop-color:#EF4444;stop-opacity:1" />
      <stop offset="100%" style="stop-color:#DC2626;stop-opacity:1" />
    </linearGradient>
  </defs>
  <rect width="400" height="300" fill="url(#bgGrad)"/>
  <circle cx="350" cy="50" r="80" fill="#ffffff" opacity="0.1"/>
  <circle cx="50" cy="250" r="100" fill="#ffffff" opacity="0.1"/>
  
  <!-- Exam icon - Clipboard -->
  <g transform="translate(140, 50)">
    <rect x="20" y="10" width="80" height="110" rx="8" fill="#ffffff" opacity="0.95"/>
    <rect x="35" y="25" width="50" height="8" rx="2" fill="#DC2626"/>
    <rect x="35" y="40" width="50" height="4" rx="1" fill="#E5E7EB"/>
    <rect x="35" y="50" width="40" height="4" rx="1" fill="#E5E7EB"/>
    <rect x="35" y="60" width="45" height="4" rx="1" fill="#E5E7EB"/>
    <rect x="35" y="70" width="35" height="4" rx="1" fill="#E5E7EB"/>
    <rect x="35" y="80" width="48" height="4" rx="1" fill="#E5E7EB"/>
    <rect x="35" y="90" width="38" height="4" rx="1" fill="#E5E7EB"/>
    <!-- Checkmark -->
    <path d="M95 30 L105 40 L115 20" fill="none" stroke="#10B981" stroke-width="4" stroke-linecap="round"/>
  </g>
  
  <!-- Clock icon -->
  <g transform="translate(280, 180)">
    <circle cx="30" cy="30" r="25" fill="#ffffff" opacity="0.9"/>
    <line x1="30" y1="30" x2="30" y2="15" stroke="#EF4444" stroke-width="3" stroke-linecap="round"/>
    <line x1="30" y1="30" x2="42" y2="30" stroke="#1F2937" stroke-width="2" stroke-linecap="round"/>
    <circle cx="30" cy="30" r="2" fill="#EF4444"/>
  </g>
  
  <text x="200" y="260" text-anchor="middle" font-family="Arial, sans-serif" font-size="22" font-weight="bold" fill="#ffffff">Board Exam</text>
  <text x="200" y="285" text-anchor="middle" font-family="Arial, sans-serif" font-size="16" fill="#FBBF24">Crash Prep</text>
</svg>