<svg xmlns="http://www.w3.org/2000/svg" viewBox="0 0 400 300">
  <defs>
    <linearGradient id="bgGrad" x1="0%" y1="0%" x2="100%" y2="100%">
      <stop offset="0%" style="stop-color:#10B981;stop-opacity:1" />
      <stop offset="100%" style="stop-color:#059669;stop-opacity:1" />
    </linearGradient>
  </defs>
  <rect width="400" height="300" fill="url(#bgGrad)"/>
  <circle cx="350" cy="50" r="80" fill="#ffffff" opacity="0.1"/>
  <circle cx="50" cy="250" r="100" fill="#ffffff" opacity="0.1"/>
  
  <!-- Building icon -->
  <g transform="translate(130, 60)">
    <rect x="20" y="60" width="120" height="100" rx="4" fill="#ffffff" opacity="0.95"/>
    <rect x="25" y="65" width="110" height="90" rx="2" fill="#059669"/>
    <polygon points="80,20 10,70 150,70" fill="#FBBF24"/>
    <rect x="65" y="100" width="30" height="60" rx="2" fill="#1F2937"/>
    <circle cx="88" cy="130" r="3" fill="#FBBF24"/>
    <rect x="35" y="80" width="20" height="20" rx="2" fill="#FBBF24"/>
    <rect x="105" y="80" width="20" height="20" rx="2" fill="#FBBF24"/>
    <rect x="35" y="110" width="20" height="20" rx="2" fill="#FBBF24"/>
    <rect x="105" y="110" width="20" height="20" rx="2" fill="#FBBF24"/>
  </g>
  
  <!-- Numbers 1-5 -->
  <text x="70" y="220" text-anchor="middle" font-family="Arial, sans-serif" font-size="24" font-weight="bold" fill="#ffffff">1</text>
  <text x="110" y="220" text-anchor="middle" font-family="Arial, sans-serif" font-size="24" font-weight="bold" fill="#ffffff">2</text>
  <text x="150" y="220" text-anchor="middle" font-family="Arial, sans-serif" font-size="24" font-weight="bold" fill="#ffffff">3</text>
  <text x="190" y="220" text-anchor="middle" font-family="Arial, sans-serif" font-size="24" font-weight="bold" fill="#ffffff">4</text>
  <text x="230" y="220" text-anchor="middle" font-family="Arial, sans-serif" font-size="24" font-weight="bold" fill="#ffffff">5</text>
  
  <text x="200" y="260" text-anchor="middle" font-family="Arial, sans-serif" font-size="22" font-weight="bold" fill="#ffffff">Primary & Middle</text>
  <text x="200" y="285" text-anchor="middle" font-family="Arial, sans-serif" font-size="16" fill="#FBBF24">School (Class 1-5)</text>
</svg>